<svg width="340" height="89" viewBox="0 0 340 89" fill="none" xmlns="http://www.w3.org/2000/svg">
<path d="M0.4 27.65C0.4 25.95 0.716667 24.4833 1.35 23.25C2.01667 22.0167 2.83333 20.9833 3.8 20.15C4.8 19.2833 5.81667 18.6333 6.85 18.2C5.85 17.5667 5.01667 16.7833 4.35 15.85C3.71667 14.9167 3.4 13.7167 3.4 12.25C3.4 10.7833 3.76667 9.48333 4.5 8.35C5.26667 7.21666 6.3 6.33333 7.6 5.7C8.9 5.03333 10.3833 4.7 12.05 4.7C13.6833 4.7 15.15 5.03333 16.45 5.7C17.75 6.33333 18.7833 7.2 19.55 8.3C20.3167 9.4 20.7 10.65 20.7 12.05C20.7 13.6167 20.3667 14.8667 19.7 15.8C19.0667 16.7333 18.25 17.5333 17.25 18.2C18.2833 18.6667 19.3 19.3333 20.3 20.2C21.3 21.0333 22.1167 22.0667 22.75 23.3C23.4167 24.5333 23.75 25.9833 23.75 27.65C23.75 29.55 23.2167 31.3167 22.15 32.95C21.1167 34.5833 19.7167 35.9 17.95 36.9C16.2167 37.9 14.2333 38.4 12 38.4C9.76667 38.4 7.78333 37.9 6.05 36.9C4.31667 35.9 2.93333 34.5833 1.9 32.95C0.9 31.3167 0.4 29.55 0.4 27.65ZM5.35 27.4C5.35 28.6667 5.65 29.8167 6.25 30.85C6.85 31.8833 7.65 32.7167 8.65 33.35C9.65 33.9833 10.7667 34.3 12 34.3C13.2667 34.3 14.4167 33.9833 15.45 33.35C16.5167 32.7167 17.35 31.8833 17.95 30.85C18.5833 29.8167 18.9 28.6833 18.9 27.45C18.9 26.1833 18.6 25.05 18 24.05C17.4 23.0167 16.5833 22.1833 15.55 21.55C14.55 20.9167 13.4333 20.6 12.2 20.6C10.9667 20.5667 9.83333 20.8667 8.8 21.5C7.76667 22.1 6.93333 22.9167 6.3 23.95C5.66667 24.9833 5.35 26.1333 5.35 27.4ZM8.1 12.85C8.1 13.8833 8.5 14.7667 9.3 15.5C10.1333 16.2 11.0833 16.55 12.15 16.55C13.2167 16.55 14.1333 16.2 14.9 15.5C15.7 14.7667 16.1 13.8833 16.1 12.85C16.1 11.65 15.7 10.6667 14.9 9.9C14.1333 9.13333 13.2167 8.75 12.15 8.75C11.05 8.75 10.1 9.13333 9.3 9.9C8.5 10.6667 8.1 11.65 8.1 12.85ZM40.7719 38.15C38.7385 38.15 36.8719 37.7667 35.1719 37C33.4719 36.2333 32.0052 35.1333 30.7719 33.7C29.5719 32.2333 28.6385 30.4667 27.9719 28.4C27.3052 26.3333 26.9719 24.0167 26.9719 21.45C26.9719 18.65 27.2885 16.2167 27.9219 14.15C28.5552 12.05 29.4719 10.3 30.6719 8.9C31.9052 7.5 33.3719 6.46667 35.0719 5.8C36.7719 5.1 38.6719 4.75 40.7719 4.75C42.8052 4.75 44.6552 5.13333 46.3219 5.9C48.0219 6.66667 49.4719 7.78333 50.6719 9.25C51.9052 10.6833 52.8552 12.4333 53.5219 14.5C54.2219 16.5333 54.5719 18.85 54.5719 21.45C54.5719 24.0833 54.2219 26.4333 53.5219 28.5C52.8552 30.5667 51.9052 32.3167 50.6719 33.75C49.4719 35.1833 48.0219 36.2833 46.3219 37.05C44.6552 37.7833 42.8052 38.15 40.7719 38.15ZM40.7219 33.5C42.6552 33.5 44.2719 33 45.5719 32C46.9052 30.9667 47.9052 29.5333 48.5719 27.7C49.2385 25.8667 49.5719 23.75 49.5719 21.35C49.5719 18.95 49.2385 16.8667 48.5719 15.1C47.9052 13.3 46.9052 11.9 45.5719 10.9C44.2719 9.9 42.6552 9.4 40.7219 9.4C38.7885 9.4 37.1719 9.91667 35.8719 10.95C34.5719 11.95 33.5885 13.35 32.9219 15.15C32.2885 16.95 31.9719 19.05 31.9719 21.45C31.9719 23.8167 32.2885 25.9167 32.9219 27.75C33.5885 29.55 34.5719 30.9667 35.8719 32C37.1719 33 38.7885 33.5 40.7219 33.5ZM68.5742 38.4C66.8076 38.4 65.1076 38.0833 63.4742 37.45C61.8742 36.8167 60.5742 36 59.5742 35L62.1742 31.25C62.8409 32.0167 63.7242 32.6333 64.8242 33.1C65.9576 33.5667 67.0742 33.8 68.1742 33.8C69.4076 33.8 70.4909 33.5333 71.4242 33C72.3909 32.4333 73.1409 31.6833 73.6742 30.75C74.2076 29.7833 74.4742 28.6833 74.4742 27.45C74.4742 26.1167 74.2242 24.9333 73.7242 23.9C73.2576 22.8667 72.5409 22.0667 71.5742 21.5C70.6409 20.9 69.4576 20.6 68.0242 20.6C66.8576 20.6 65.7742 20.7667 64.7742 21.1C63.7742 21.4 62.7409 21.8667 61.6742 22.5H61.6242V5.1H77.3742V9.75H65.8242V18.15L65.1742 17.15C65.7409 16.95 66.3742 16.8 67.0742 16.7C67.8076 16.5667 68.5076 16.5 69.1742 16.5C71.4076 16.5 73.2742 17 74.7742 18C76.3076 18.9667 77.4576 20.2667 78.2242 21.9C79.0242 23.5333 79.4242 25.3333 79.4242 27.3C79.4242 29.3667 78.9576 31.25 78.0242 32.95C77.0909 34.6167 75.8076 35.95 74.1742 36.95C72.5409 37.9167 70.6742 38.4 68.5742 38.4ZM87.6961 38V0.699997H87.7461L106.696 27.6L104.646 27.2L123.546 0.699997H123.646V38H118.846V11.7L119.146 14.15L105.496 33.45H105.396L91.5461 14.15L92.3961 11.9V38H87.6961ZM130.434 38L146.234 0.349999H146.534L162.284 38H156.734L144.934 7.95L148.384 5.7L135.184 38H130.434ZM139.684 24.3H153.134L154.734 28.5H138.284L139.684 24.3ZM163.611 1.85H187.611V6.5H177.911V38H173.061V6.5H163.611V1.85ZM192.663 1.85H216.663V6.5H206.963V38H202.113V6.5H192.663V1.85ZM233.966 1.85C235.799 1.85 237.483 2.1 239.016 2.6C240.583 3.06667 241.933 3.78333 243.066 4.75C244.233 5.68333 245.133 6.85 245.766 8.25C246.433 9.61667 246.766 11.2167 246.766 13.05C246.766 14.4833 246.549 15.8833 246.116 17.25C245.716 18.6167 245.033 19.8667 244.066 21C243.099 22.1 241.833 23 240.266 23.7C238.733 24.3667 236.833 24.7 234.566 24.7H229.216V38H224.366V1.85H233.966ZM234.466 20.05C235.899 20.05 237.083 19.8333 238.016 19.4C238.983 18.9667 239.733 18.4167 240.266 17.75C240.799 17.05 241.183 16.3 241.416 15.5C241.649 14.7 241.766 13.95 241.766 13.25C241.766 12.5167 241.633 11.7667 241.366 11C241.133 10.2 240.733 9.46667 240.166 8.8C239.633 8.13333 238.916 7.58333 238.016 7.15C237.149 6.71666 236.083 6.5 234.816 6.5H229.216V20.05H234.466ZM240.416 22.8L249.866 38H244.266L234.666 22.95L240.416 22.8ZM257.325 1.85H280.825V6.5H262.175V17.5H278.825V22.15H262.175V33.35H281.525V38H257.325V1.85ZM308.642 8.3C307.409 7.66666 306.059 7.11666 304.592 6.65C303.126 6.18333 301.692 5.95 300.292 5.95C298.359 5.95 296.809 6.4 295.642 7.3C294.509 8.2 293.942 9.4 293.942 10.9C293.942 12.0333 294.309 13 295.042 13.8C295.776 14.5667 296.742 15.2333 297.942 15.8C299.142 16.3667 300.392 16.9 301.692 17.4C302.826 17.8333 303.942 18.3167 305.042 18.85C306.142 19.3833 307.126 20.05 307.992 20.85C308.892 21.65 309.592 22.6333 310.092 23.8C310.626 24.9667 310.892 26.4167 310.892 28.15C310.892 30.05 310.409 31.7833 309.442 33.35C308.509 34.9167 307.159 36.15 305.392 37.05C303.626 37.95 301.526 38.4 299.092 38.4C297.492 38.4 295.959 38.2167 294.492 37.85C293.059 37.4833 291.726 37.0167 290.492 36.45C289.259 35.85 288.159 35.2333 287.192 34.6L289.342 30.8C290.142 31.3667 291.059 31.9167 292.092 32.45C293.126 32.95 294.209 33.3667 295.342 33.7C296.476 34 297.576 34.15 298.642 34.15C299.776 34.15 300.892 33.95 301.992 33.55C303.126 33.1167 304.059 32.4667 304.792 31.6C305.526 30.7333 305.892 29.5833 305.892 28.15C305.892 26.9167 305.559 25.9 304.892 25.1C304.259 24.2667 303.409 23.5667 302.342 23C301.276 22.4 300.142 21.8667 298.942 21.4C297.809 20.9667 296.659 20.5 295.492 20C294.326 19.4667 293.242 18.8333 292.242 18.1C291.242 17.3333 290.442 16.4 289.842 15.3C289.242 14.2 288.942 12.8667 288.942 11.3C288.942 9.4 289.392 7.75 290.292 6.35C291.226 4.91666 292.492 3.8 294.092 3C295.692 2.16667 297.526 1.71666 299.592 1.65C301.926 1.65 303.976 1.93333 305.742 2.5C307.542 3.06667 309.126 3.76667 310.492 4.6L308.642 8.3ZM337.744 8.3C336.51 7.66666 335.16 7.11666 333.694 6.65C332.227 6.18333 330.794 5.95 329.394 5.95C327.46 5.95 325.91 6.4 324.744 7.3C323.61 8.2 323.044 9.4 323.044 10.9C323.044 12.0333 323.41 13 324.144 13.8C324.877 14.5667 325.844 15.2333 327.044 15.8C328.244 16.3667 329.494 16.9 330.794 17.4C331.927 17.8333 333.044 18.3167 334.144 18.85C335.244 19.3833 336.227 20.05 337.094 20.85C337.994 21.65 338.694 22.6333 339.194 23.8C339.727 24.9667 339.994 26.4167 339.994 28.15C339.994 30.05 339.51 31.7833 338.544 33.35C337.61 34.9167 336.26 36.15 334.494 37.05C332.727 37.95 330.627 38.4 328.194 38.4C326.594 38.4 325.06 38.2167 323.594 37.85C322.16 37.4833 320.827 37.0167 319.594 36.45C318.36 35.85 317.26 35.2333 316.294 34.6L318.444 30.8C319.244 31.3667 320.16 31.9167 321.194 32.45C322.227 32.95 323.31 33.3667 324.444 33.7C325.577 34 326.677 34.15 327.744 34.15C328.877 34.15 329.994 33.95 331.094 33.55C332.227 33.1167 333.16 32.4667 333.894 31.6C334.627 30.7333 334.994 29.5833 334.994 28.15C334.994 26.9167 334.66 25.9 333.994 25.1C333.36 24.2667 332.51 23.5667 331.444 23C330.377 22.4 329.244 21.8667 328.044 21.4C326.91 20.9667 325.76 20.5 324.594 20C323.427 19.4667 322.344 18.8333 321.344 18.1C320.344 17.3333 319.544 16.4 318.944 15.3C318.344 14.2 318.044 12.8667 318.044 11.3C318.044 9.4 318.494 7.75 319.394 6.35C320.327 4.91666 321.594 3.8 323.194 3C324.794 2.16667 326.627 1.71666 328.694 1.65C331.027 1.65 333.077 1.93333 334.844 2.5C336.644 3.06667 338.227 3.76667 339.594 4.6L337.744 8.3ZM13.85 51.85C16.4833 51.85 18.7333 52.3 20.6 53.2C22.4667 54.0667 23.9 55.3333 24.9 57C25.9333 58.6667 26.45 60.6833 26.45 63.05C26.45 64.4833 26.2333 65.9 25.8 67.3C25.3667 68.6667 24.6667 69.9167 23.7 71.05C22.7667 72.15 21.5333 73.0333 20 73.7C18.4667 74.3667 16.6 74.7 14.4 74.7H9.05V88H4.2V51.85H13.85ZM14.35 70.05C15.7833 70.05 16.9667 69.8167 17.9 69.35C18.8333 68.8833 19.5667 68.3 20.1 67.6C20.6333 66.8667 21.0167 66.1 21.25 65.3C21.4833 64.5 21.6 63.7833 21.6 63.15C21.6 62.4167 21.4833 61.6667 21.25 60.9C21.0167 60.1 20.6167 59.3833 20.05 58.75C19.5167 58.0833 18.8 57.55 17.9 57.15C17.0333 56.7167 15.95 56.5 14.65 56.5H9.05V70.05H14.35ZM43.5363 51.85C45.3697 51.85 47.053 52.1 48.5863 52.6C50.153 53.0667 51.503 53.7833 52.6363 54.75C53.803 55.6833 54.703 56.85 55.3363 58.25C56.003 59.6167 56.3363 61.2167 56.3363 63.05C56.3363 64.4833 56.1197 65.8833 55.6863 67.25C55.2863 68.6167 54.603 69.8667 53.6363 71C52.6697 72.1 51.403 73 49.8363 73.7C48.303 74.3667 46.403 74.7 44.1363 74.7H38.7863V88H33.9363V51.85H43.5363ZM44.0363 70.05C45.4697 70.05 46.653 69.8333 47.5863 69.4C48.553 68.9667 49.303 68.4167 49.8363 67.75C50.3697 67.05 50.753 66.3 50.9863 65.5C51.2197 64.7 51.3363 63.95 51.3363 63.25C51.3363 62.5167 51.203 61.7667 50.9363 61C50.703 60.2 50.303 59.4667 49.7363 58.8C49.203 58.1333 48.4863 57.5833 47.5863 57.15C46.7197 56.7167 45.653 56.5 44.3863 56.5H38.7863V70.05H44.0363ZM49.9863 72.8L59.4363 88H53.8363L44.2363 72.95L49.9863 72.8ZM63.8641 69.95C63.8641 67.45 64.3307 65.1 65.2641 62.9C66.2307 60.6667 67.5641 58.7 69.2641 57C70.9641 55.2667 72.9141 53.9167 75.1141 52.95C77.3474 51.95 79.7474 51.45 82.3141 51.45C84.8474 51.45 87.2141 51.95 89.4141 52.95C91.6474 53.9167 93.6141 55.2667 95.3141 57C97.0474 58.7 98.3974 60.6667 99.3641 62.9C100.331 65.1 100.814 67.45 100.814 69.95C100.814 72.5167 100.331 74.9167 99.3641 77.15C98.3974 79.3833 97.0474 81.35 95.3141 83.05C93.6141 84.7167 91.6474 86.0333 89.4141 87C87.2141 87.9333 84.8474 88.4 82.3141 88.4C79.7474 88.4 77.3474 87.9333 75.1141 87C72.9141 86.0667 70.9641 84.7667 69.2641 83.1C67.5641 81.4333 66.2307 79.4833 65.2641 77.25C64.3307 75.0167 63.8641 72.5833 63.8641 69.95ZM68.8641 70C68.8641 71.9 69.2141 73.6833 69.9141 75.35C70.6141 76.9833 71.5807 78.4333 72.8141 79.7C74.0474 80.9667 75.4807 81.9667 77.1141 82.7C78.7474 83.4 80.5141 83.75 82.4141 83.75C84.2807 83.75 86.0307 83.4 87.6641 82.7C89.2974 81.9667 90.7141 80.9667 91.9141 79.7C93.1141 78.4333 94.0641 76.9833 94.7641 75.35C95.4641 73.6833 95.8141 71.8833 95.8141 69.95C95.8141 68.05 95.4641 66.2667 94.7641 64.6C94.0641 62.9 93.0974 61.4167 91.8641 60.15C90.6307 58.8833 89.1974 57.9 87.5641 57.2C85.9307 56.4667 84.1807 56.1 82.3141 56.1C80.4141 56.1 78.6474 56.4667 77.0141 57.2C75.3807 57.9333 73.9474 58.9333 72.7141 60.2C71.4807 61.4667 70.5307 62.95 69.8641 64.65C69.1974 66.3167 68.8641 68.1 68.8641 70Z" fill="black"/>
</svg>
